<?xml version="1.0" encoding="UTF-8" standalone="no"?>
<!DOCTYPE svg PUBLIC "-//W3C//DTD SVG 1.1//EN" "http://www.w3.org/Graphics/SVG/1.1/DTD/svg11.dtd">
<svg width="100%" height="100%" viewBox="0 0 448 448" version="1.1" xmlns="http://www.w3.org/2000/svg" xmlns:xlink="http://www.w3.org/1999/xlink" xml:space="preserve" xmlns:serif="http://www.serif.com/" style="fill-rule:evenodd;clip-rule:evenodd;stroke-linejoin:round;stroke-miterlimit:2;">
    <g transform="matrix(1,0,0,1,2.84217e-14,-31.4101)">
        <path d="M439.6,236.1L244,40.5C238.6,35 231.2,32 223.6,32C216,32 208.6,35 203.2,40.4L162.5,81L214,132.5C241.1,123.4 266.7,149.3 257.4,176.2L307.1,225.9C341.3,214.1 368.3,256.9 342.6,282.6C316.1,309.1 272.4,279.7 286.6,245.3L240.3,199L240.3,320.9C265.6,333.4 262.6,362.7 249.4,375.9C243,382.3 234.2,386 225.1,386C216,386 207.3,382.4 200.8,375.9C183.2,358.3 189.7,329 212,319.9L212,196.9C191.2,188.4 187.4,166.2 193.4,151.9L142.6,101L8.5,235.1C3,240.6 0,247.9 0,255.5C0,263.1 3,270.5 8.5,275.9L204.1,471.6C209.5,477 216.8,480 224.5,480C232.2,480 239.5,477 244.9,471.6L439.6,276.9C445,271.5 448,264.1 448,256.5C448,248.9 445,241.5 439.6,236.1Z" style="fill:rgb(67,67,67);fill-rule:nonzero;"/>
    </g>
    <g id="Artboard2" transform="matrix(1,0,0,1,17.0451,-22.5899)">
        <rect x="-17.045" y="22.59" width="448" height="448" style="fill:none;"/>
    </g>
</svg>
