<?xml version="1.0" encoding="UTF-8" standalone="no"?>
<!DOCTYPE svg PUBLIC "-//W3C//DTD SVG 1.1//EN" "http://www.w3.org/Graphics/SVG/1.1/DTD/svg11.dtd">
<svg width="100%" height="100%" viewBox="0 0 448 448" version="1.1" xmlns="http://www.w3.org/2000/svg" xmlns:xlink="http://www.w3.org/1999/xlink" xml:space="preserve" xmlns:serif="http://www.serif.com/" style="fill-rule:evenodd;clip-rule:evenodd;stroke-linejoin:round;stroke-miterlimit:2;">
    <g id="Artboard2" transform="matrix(1,0,0,1,17.0451,-22.5899)">
        <rect x="-17.045" y="22.59" width="448" height="448" style="fill:none;"/>
    </g>
    <g transform="matrix(0.592958,0,0,0.592958,224,224)">
        <g transform="matrix(1,0,0,1,-288,-288)">
            <g transform="matrix(1.037657,0,0,1.03766,-11.28358,22.381443)">
                <path d="M178.2,-10.1C185.6,-13.2 194,-12.3 200.7,-7.9L288.5,50.3L376.3,-7.9C383,-12.3 391.4,-13.1 398.8,-10.1C406.2,-7.1 411.4,-0.5 413,7.3L433.9,110.5L537.1,131.4C544.9,133 551.5,138.4 554.5,145.7C557.5,153 556.7,161.5 552.3,168.2L494.1,256L552.3,343.8C556.7,350.5 557.5,358.9 554.5,366.3C551.5,373.7 544.9,379.1 537.1,380.6L433.8,401.4L413,504.7C411.4,512.5 406,519.1 398.7,522.1C391.4,525.1 382.9,524.3 376.2,519.9L288.4,461.7L200.6,519.9C193.9,524.3 185.5,525.1 178.1,522.1C170.7,519.1 165.3,512.5 163.8,504.7L143,401.4L39.7,380.5C31.9,378.9 25.3,373.5 22.3,366.2C19.3,358.9 20.1,350.4 24.5,343.7L82.7,256L24.5,168.2C20.1,161.5 19.3,153.1 22.3,145.7C25.3,138.3 31.9,132.9 39.7,131.4L143,110.6L163.9,7.3C165.5,-0.5 170.9,-7.1 178.2,-10.1ZM207.6,256L207.6,256C207.6,211.894 243.894,175.6 288,175.6C332.106,175.6 368.4,211.894 368.4,256L368.4,256C368.4,300.106 332.106,336.4 288,336.4C243.894,336.4 207.6,300.106 207.6,256ZM416.4,256C416.4,185.562 358.438,127.6 288,127.6C217.562,127.6 159.6,185.562 159.6,256L159.6,256C159.6,326.438 217.562,384.4 288,384.4C358.438,384.4 416.4,326.438 416.4,256L416.4,256Z" style="fill:white;fill-rule:nonzero;"/>
            </g>
        </g>
    </g>
</svg>
